<svg width="24" height="24" viewBox="0 0 24 24" fill="none" xmlns="http://www.w3.org/2000/svg">
<g clip-path="url(#clip0_4706_29214)">
<path d="M18.2273 0H5.77103C5.29061 0 4.9043 0.386317 4.9043 0.866736V3.70468H19.094V0.866736C19.094 0.386317 18.7077 0 18.2273 0Z" fill="#00a1ff"/>
<path d="M19.6941 1.7334H4.30579C3.6124 1.7334 3.05273 2.29306 3.05273 2.98645V3.97205H20.9471V2.98645C20.9471 2.29306 20.3875 1.7334 19.6941 1.7334Z" fill="#00b1ff"/>
<path d="M21.4969 3.51172H2.50305C1.80966 3.51172 1.25 4.07138 1.25 4.76477V22.6047C1.25 23.2981 1.81462 23.8627 2.50801 23.8627H21.492C22.1854 23.8627 22.75 23.2981 22.75 22.6047V4.76477C22.75 4.07138 22.1903 3.51172 21.4969 3.51172Z" fill="#00d4ff"/>
<path d="M7.59427 5.34863C6.27683 5.34863 5.20703 6.41843 5.20703 7.73587C5.20703 9.05331 6.27683 10.1231 7.59427 10.1231C8.91171 10.1231 9.98151 9.05331 9.98151 7.73587C9.98151 6.41843 8.91171 5.34863 7.59427 5.34863ZM7.59427 9.28114C6.73744 9.28114 6.04405 8.58775 6.04405 7.73092C6.04405 6.87409 6.73744 6.1807 7.59427 6.1807C8.4511 6.1807 9.14449 6.87409 9.14449 7.73092C9.14449 8.58775 8.4511 9.28114 7.59427 9.28114Z" fill="#000000"/>
<path d="M8.4908 9.86621H6.72266V14.7051H8.4908V9.86621Z" fill="#000000"/>
<path d="M18.9321 7.77103C18.9321 6.45359 17.8623 5.38379 16.5448 5.38379C15.2274 5.38379 14.1576 6.45359 14.1576 7.77103C14.1576 8.78635 14.7916 9.65308 15.688 9.99978V11.6391L6.72349 14.6009H6.70863V17.637C5.83199 17.9886 5.21289 18.8504 5.21289 19.8508C5.21289 21.1683 6.28269 22.2381 7.60013 22.2381C8.91757 22.2381 9.98737 21.1683 9.98737 19.8508C9.98737 18.8603 9.38313 18.0084 8.5263 17.6469V15.7648L17.4413 12.8179L17.4215 12.7832H17.4413V9.97996C18.313 9.62832 18.9321 8.77149 18.9321 7.77103ZM9.14539 19.8558C9.14539 20.7126 8.45201 21.406 7.59518 21.406C6.73835 21.406 6.04496 20.7126 6.04496 19.8558C6.04496 18.999 6.73835 18.3056 7.59518 18.3056C8.45201 18.3056 9.14539 18.999 9.14539 19.8558ZM16.5448 9.31629C15.688 9.31629 14.9946 8.6229 14.9946 7.76607C14.9946 6.90924 15.688 6.21586 16.5448 6.21586C17.4017 6.21586 18.0951 6.90924 18.0951 7.76607C18.0951 8.6229 17.3967 9.31629 16.5448 9.31629Z" fill="#000000"/>
</g>
<defs>
<clipPath id="clip0_4706_29214">
<rect width="24" height="24" fill="white"/>
</clipPath>
</defs>
</svg>
